#!OML:ASF I:\Actors\actors\Patient Classification 1\Patient 1\Session 1\Subject1.ASF
:FULLY-SPECIFIED
:DEGREES
746
root 0.871486 17.5742 9.17582 9.64771 2.97626 -8.57819
lowerback 1.17867 0.312187 7.25692
upperback -10.3901 1.16224 1.8955
thorax -11.7909 -0.0124582 -2.11992
lowerneck -10.5471 -4.41594 -2.1365
upperneck 44.0271 -8.65808 4.72143
head 18.8845 -3.22766 1.07107
rclavicle 7.00716e-015 -4.11484e-014
rhumerus 3.66582 66.1019 -92.6496
rradius 140.44
rwrist -10.4663
rhand -38.0231 -73.703
rfingers 7.12502
rthumb -11.0615 103.391
lclavicle 7.00716e-015 -4.11484e-014
lhumerus -12.5551 -69.8118 107.151
lradius 136.443
lwrist 12.3022
lhand -50.9157 -26.9497
lfingers 7.12502
lthumb -23.4678 1.63903
rfemur -2.05284 24.5858 26.1865
rtibia 2.66868
rfoot -14.2951 -25.745
rtoes 2.56499
lfemur 4.75869 -44.5563 -10.9303
ltibia -4.24119
lfoot -18.2442 49.0241
ltoes 2.37735
747
root 0.873071 17.5761 9.17835 9.70527 2.95721 -8.5974
lowerback 1.27142 0.307821 7.31981
upperback -10.4998 1.17488 1.87144
thorax -11.9762 -0.0220492 -2.1817
lowerneck -10.5694 -4.41651 -2.09593
upperneck 43.9333 -8.6466 4.68384
head 18.8226 -3.22355 1.04535
rclavicle -7.40473e-015 2.60408e-014
rhumerus 3.72462 66.0769 -92.644
rradius 140.447
rwrist -10.585
rhand -38.201 -73.3838
rfingers 7.12502
rthumb -11.2331 103.063
lclavicle -7.40473e-015 2.60408e-014
lhumerus -12.4666 -69.8196 107.141
lradius 136.446
lwrist 12.3279
lhand -50.9372 -26.7434
lfingers 7.12502
lthumb -23.4883 1.84272
rfemur -2.11643 24.5518 26.1667
rtibia 2.66189
rfoot -14.3186 -25.6711
rtoes 2.68401
lfemur 4.77173 -44.768 -10.9339
ltibia -4.25837
lfoot -18.3902 49.2296
ltoes 2.57419
748
root 0.873749 17.5789 9.17992 9.74978 2.94049 -8.56273
lowerback 1.33886 0.281983 7.25874
upperback -10.5742 1.14622 1.8696
thorax -12.1077 -0.0358378 -2.14626
lowerneck -10.6579 -4.39132 -2.02911
upperneck 43.9011 -8.60772 4.64248
head 18.8155 -3.20126 1.01758
rclavicle -8.34896e-015 3.22031e-014
rhumerus 3.96039 66.1747 -92.4287
rradius 140.499
rwrist -10.242
rhand -37.8214 -73.536
rfingers 7.12502
rthumb -10.867 103.235
lclavicle -8.34896e-015 3.22031e-014
lhumerus -12.0478 -69.677 106.835
lradius 136.332
lwrist 12.255
lhand -50.9425 -26.8554
lfingers 7.12502
lthumb -23.4935 1.72999
rfemur -2.15578 24.5929 26.1031
rtibia 2.64985
rfoot -14.3313 -25.6853
rtoes 2.65833
lfemur 4.82817 -45.1073 -11.0346
ltibia -4.27183
lfoot -18.7977 49.5108
ltoes 3.10132
749
root 0.873934 17.581 9.18072 9.75899 2.96342 -8.52484
lowerback 1.46747 0.242514 7.19948
upperback -10.6496 1.10459 1.86172
thorax -12.2798 -0.0576273 -2.11718
lowerneck -10.7495 -4.36939 -1.97706
upperneck 43.8849 -8.5805 4.62132
head 18.8235 -3.18297 1.00021
rclavicle 1.09829e-014 1.35174e-014
rhumerus 4.17405 66.2454 -92.2054
rradius 140.525
rwrist -9.89244
rhand -37.5398 -73.5981
rfingers 7.12502
rthumb -10.5953 103.311
lclavicle 1.09829e-014 1.35174e-014
lhumerus -11.7467 -69.5808 106.619
lradius 136.236
lwrist 12.1209
lhand -50.8888 -26.9573
lfingers 7.12502
lthumb -23.4419 1.63478
rfemur -2.1349 24.6828 26.0725
rtibia 2.624
rfoot -14.3517 -25.7927
rtoes 2.68821
lfemur 4.85746 -45.2951 -11.1092
ltibia -4.27474
lfoot -18.9466 49.6489
ltoes 3.18543
750
root 0.874864 17.5823 9.18277 9.75298 2.98607 -8.52535
lowerback 1.61175 0.215037 7.23634
upperback -10.72 1.08647 1.83792
thorax -12.4547 -0.0785969 -2.16143
lowerneck -10.8202 -4.38898 -1.95665
upperneck 43.8276 -8.58334 4.5503
head 18.7983 -3.19065 0.958542
rclavicle -1.47101e-014 8.34896e-015
rhumerus 4.32052 66.1082 -92.1033
rradius 140.563
rwrist -10.1804
rhand -37.5138 -73.42
rfingers 7.12502
rthumb -10.5703 103.134
lclavicle -1.47101e-014 8.34896e-015
lhumerus -11.9049 -69.7685 106.764
lradius 136.305
lwrist 12.2047
lhand -51.0075 -27.0578
lfingers 7.12502
lthumb -23.5558 1.51964
rfemur -2.09523 24.7134 26.0893
rtibia 2.59746
rfoot -14.3541 -25.8498
rtoes 2.64326
lfemur 4.89104 -45.3584 -11.1428
ltibia -4.27723
lfoot -18.7527 49.7206
ltoes 2.81132
751
root 0.876172 17.5835 9.18491 9.75641 2.98729 -8.52436
lowerback 1.71796 0.199492 7.27651
upperback -10.759 1.07965 1.81929
thorax -12.5681 -0.091637 -2.20335
lowerneck -10.9212 -4.44159 -1.96456
upperneck 43.7956 -8.62613 4.46119
head 18.8005 -3.22024 0.905159
rclavicle 4.07509e-015 6.36111e-015
rhumerus 4.55422 65.9341 -91.945
rradius 140.576
rwrist -10.4249
rhand -37.2727 -73.5038
rfingers 7.12502
rthumb -10.3377 103.23
lclavicle 4.07509e-015 6.36111e-015
lhumerus -11.9856 -69.9822 106.856
lradius 136.426
lwrist 12.3579
lhand -51.1007 -27.154
lfingers 7.12502
lthumb -23.6452 1.41197
rfemur -2.09086 24.6529 26.0807
rtibia 2.58423
rfoot -14.3158 -25.8014
rtoes 2.57433
lfemur 4.91576 -45.3864 -11.1735
ltibia -4.2809
lfoot -18.7963 49.7561
ltoes 2.96991
752
root 0.87732 17.5848 9.18485 9.77384 2.97475 -8.49626
lowerback 1.78789 0.197538 7.27767
upperback -10.758 1.08173 1.79851
thorax -12.6099 -0.0935496 -2.22746
lowerneck -11.0238 -4.48001 -1.93508
upperneck 43.7705 -8.66825 4.39716
head 18.8077 -3.23913 0.85758
rclavicle 2.83268e-015 -1.68967e-014
rhumerus 4.91697 65.7648 -91.6185
rradius 140.54
rwrist -10.2871
rhand -36.9526 -73.6805
rfingers 7.12502
rthumb -10.0289 103.422
lclavicle 2.83268e-015 -1.68967e-014
lhumerus -11.6438 -70.0246 106.612
lradius 136.449
lwrist 12.3325
lhand -50.9069 -27.2336
lfingers 7.12502
lthumb -23.4593 1.35624
rfemur -2.1317 24.6007 26.0241
rtibia 2.58746
rfoot -14.2539 -25.7491
rtoes 2.57358
lfemur 4.87591 -45.3677 -11.1898
ltibia -4.25995
lfoot -18.8747 49.743
ltoes 3.14834
753
root 0.878176 17.5863 9.1842 9.78135 2.94672 -8.44881
lowerback 1.84888 0.195996 7.24217
upperback -10.7312 1.07803 1.7718
thorax -12.6153 -0.0933006 -2.23733
lowerneck -11.0332 -4.4898 -1.78689
upperneck 43.6743 -8.6619 4.26812
head 18.726 -3.23165 0.768907
rclavicle -2.23633e-015 5.96354e-016
rhumerus 5.23137 65.7271 -91.2837
rradius 140.516
rwrist -9.9128
rhand -36.7432 -73.9044
rfingers 7.12502
rthumb -9.82686 103.655
lclavicle -2.23633e-015 5.96354e-016
lhumerus -11.1424 -70.0618 106.237
lradius 136.443
lwrist 12.3115
lhand -50.8069 -27.3778
lfingers 7.12502
lthumb -23.3634 1.22427
rfemur -2.16161 24.5737 25.9539
rtibia 2.60884
rfoot -14.2377 -25.705
rtoes 2.62428
lfemur 4.85176 -45.3575 -11.2471
ltibia -4.21409
lfoot -18.9146 49.7327
ltoes 3.12875
754
root 0.879156 17.5875 9.18326 9.7753 2.93412 -8.4374
lowerback 1.94483 0.179626 7.26083
upperback -10.7154 1.06289 1.74526
thorax -12.6576 -0.105483 -2.27565
lowerneck -10.9764 -4.49254 -1.69322
upperneck 43.5877 -8.64941 4.18684
head 18.6404 -3.2264 0.716284
rclavicle 8.15017e-015 3.97569e-016
rhumerus 5.3443 65.9872 -91.1494
rradius 140.525
rwrist -9.42427
rhand -36.8252 -74.2984
rfingers 7.12502
rthumb -9.90604 104.045
lclavicle 8.15017e-015 3.97569e-016
lhumerus -10.8859 -70.14 106.081
lradius 136.465
lwrist 12.2297
lhand -51.0131 -26.9075
lfingers 7.12502
lthumb -23.5612 1.66922
rfemur -2.16742 24.5364 25.9397
rtibia 2.64054
rfoot -14.2507 -25.6622
rtoes 2.67551
lfemur 4.81883 -45.2655 -11.2438
ltibia -4.17125
lfoot -19.1709 49.5964
ltoes 3.52072
755
root 0.880956 17.588 9.18022 9.78799 2.92126 -8.44788
lowerback 2.07696 0.156405 7.33866
upperback -10.7083 1.04738 1.71577
thorax -12.7339 -0.125397 -2.34999
lowerneck -10.9643 -4.47463 -1.7612
upperneck 43.5839 -8.65772 4.31507
head 18.6516 -3.22482 0.788202
rclavicle -2.88238e-015 5.74488e-014
rhumerus 5.39613 66.1293 -91.1828
rradius 140.532
rwrist -9.11266
rhand -36.9132 -74.3974
rfingers 7.12502
rthumb -9.99094 104.14
lclavicle -2.88238e-015 5.74488e-014
lhumerus -10.9767 -70.1869 106.2
lradius 136.498
lwrist 12.0667
lhand -51.1329 -26.4414
lfingers 7.12502
lthumb -23.6761 2.12052
rfemur -2.21849 24.4833 25.9312
rtibia 2.68002
rfoot -14.2135 -25.6115
rtoes 2.63314
lfemur 4.69325 -45.0152 -11.1375
ltibia -4.13015
lfoot -19.2329 49.3418
ltoes 3.66197
756
root 0.881673 17.5877 9.17569 9.81085 2.88921 -8.45217
lowerback 2.18344 0.138153 7.37558
upperback -10.6426 1.03122 1.7085
thorax -12.7241 -0.136033 -2.37785
lowerneck -11.072 -4.45962 -1.92441
upperneck 43.5864 -8.67972 4.52514
head 18.7148 -3.23001 0.910445
rclavicle -9.44227e-016 -3.57812e-015
rhumerus 5.62332 66.1221 -91.0477
rradius 140.544
rwrist -9.0583
rhand -36.8528 -74.3588
rfingers 7.12502
rthumb -9.93267 104.104
lclavicle -9.44227e-016 -3.57812e-015
lhumerus -10.9272 -70.1889 106.191
lradius 136.525
lwrist 12.0512
lhand -51.0943 -26.5368
lfingers 7.12502
lthumb -23.6391 2.02989
rfemur -2.30084 24.4953 25.9117
rtibia 2.72862
rfoot -14.115 -25.6321
rtoes 2.45256
lfemur 4.54864 -44.7413 -11.0179
ltibia -4.10614
lfoot -18.8733 49.1589
ltoes 3.16875
757
root 0.879487 17.5871 9.1712 9.80898 2.80584 -8.50871
lowerback 2.26509 0.138512 7.39514
upperback -10.5006 1.03617 1.74612
thorax -12.6064 -0.126656 -2.35049
lowerneck -11.1638 -4.46136 -2.08125
upperneck 43.5191 -8.68984 4.66487
head 18.7211 -3.24088 0.999781
rclavicle 3.23025e-015 -4.29375e-014
rhumerus 5.92777 66.1712 -90.779
rradius 140.59
rwrist -9.09639
rhand -36.8282 -74.4792
rfingers 7.12502
rthumb -9.9089 104.226
lclavicle 3.23025e-015 -4.29375e-014
lhumerus -10.614 -70.0994 105.999
lradius 136.566
lwrist 12.1265
lhand -51.0147 -26.4138
lfingers 7.12502
lthumb -23.5627 2.16274
rfemur -2.36802 24.5727 25.9715
rtibia 2.80335
rfoot -14.0401 -25.6797
rtoes 2.28599
lfemur 4.49321 -44.4967 -10.8854
ltibia -4.12227
lfoot -18.5329 49.062
ltoes 2.77052
758
root 0.878645 17.5856 9.16476 9.80762 2.62951 -8.57471
lowerback 2.34461 0.182323 7.44269
upperback -10.3191 1.09691 1.75677
thorax -12.435 -0.0924208 -2.37579
lowerneck -11.1403 -4.46794 -2.1233
upperneck 43.4401 -8.7158 4.7517
head 18.6767 -3.24923 1.04338
rclavicle 1.60519e-014 -2.28602e-014
rhumerus 6.24759 66.1466 -90.5077
rradius 140.674
rwrist -9.33429
rhand -36.9596 -74.4338
rfingers 7.12502
rthumb -10.0356 104.174
lclavicle 1.60519e-014 -2.28602e-014
lhumerus -10.4644 -70.0826 105.944
lradius 136.605
lwrist 12.0658
lhand -50.9959 -26.1647
lfingers 7.12502
lthumb -23.5446 2.41417
rfemur -2.48117 24.5505 26.0012
rtibia 2.92384
rfoot -13.9973 -25.5089
rtoes 2.22835
lfemur 4.48547 -44.2799 -10.8072
ltibia -4.11587
lfoot -18.5294 49.0254
ltoes 2.75476
